<svg id="Calque_1" data-name="Calque 1" xmlns="http://www.w3.org/2000/svg" viewBox="0 0 1280 768"><defs><style>.cls-1{fill:#fff;}.cls-2{fill:none;}.cls-3{fill:#f9f9f9;}</style></defs><title>bgnewok</title><path class="cls-1" d="M357.38,290.14Q377.1,270,377.12,241.7q0-23.09-16-38.75t-41.35-15.64q-25.33,0-40.6,17.14t-15.27,43.21q0,33.53,36.51,81.21Q337.63,310.26,357.38,290.14Z"/><path class="cls-1" d="M281.75,395.94q-71.53,40.23-71.53,117.72,0,35.22,17.37,58.4l177.32-17.87Z"/><polygon class="cls-2" points="677 187.35 677 134 615.7 134 556 134 556 187 616 187 616 532.92 677 526.77 677 187.35"/><path class="cls-2" d="M238.16,583.69Q266.11,609,306.34,609q64.08,0,103.56-48.43l-5-6.41,81.33-8.2q17.55-35.08,33.93-82.26l-41.72-45.45q-20.12,58.12-35,88.66L334.65,369.11q61.84-32,82.71-67.8Q436,268.53,436,238q0-44-30.92-74.13t-85.31-30.17q-49.17,0-82.33,31.3t-33.16,79.72q0,46.94,45.45,108.78-41.74,21.62-71.15,63t-29.43,95.75q0,37.47,11.52,66.62l67-6.75A81.58,81.58,0,0,0,238.16,583.69Z"/><polygon class="cls-1" points="32 187 0 187 0 595 32 591.77 32 187"/><path class="cls-1" d="M0,0V134H93V585.63l67.65-6.82q-11.51-29.16-11.52-66.62,0-54.38,29.43-95.75t71.15-63q-45.45-61.84-45.45-108.78,0-48.42,33.16-79.72t82.33-31.3q54.39,0,85.31,30.17T436,238q0,30.56-18.63,63.33-20.86,35.77-82.71,67.8L443.43,507q14.92-30.54,35-88.66l41.72,45.45q-16.38,47.2-33.93,82.26L616,532.92V187H556V134H677V526.77L1280,466V0H0Z"/><path class="cls-3" d="M677,658H616V532.92L486.24,546q-2.4,4.79-4.82,9.37l81,102.64H487.23l-41.56-52Q392,667.13,306.34,667.22q-71.53,0-114.37-41.38a131.78,131.78,0,0,1-31.32-47L93,585.63V658H32V591.78L0,595V768H1280V466L677,526.77V658Z"/><path class="cls-3" d="M238.16,583.69Q266.11,609,306.34,609q64.08,0,103.56-48.43l-5-6.41L227.6,572.06A81.58,81.58,0,0,0,238.16,583.69Z"/></svg>