<svg xmlns="http://www.w3.org/2000/svg" width="1160.7" height="279.5" viewBox="0 0 1160.7 279.5">
  <g id="Capa_1" data-name="Capa 1" transform="translate(0 0.5)">
    <g id="_Group_" data-name="&lt;Group&gt;">
      <path id="_Compound_Path_" data-name="&lt;Compound Path&gt;" d="M228.7,139.6c0,84.9-56.4,134.1-132.9,134.1H0V5.2H96.2C172.7,5.2,228.7,54.8,228.7,139.6Zm-54.1,0c0-58.3-36.4-85.9-80.3-85.9h-42V225.2H93.9C137.8,225.2,174.6,198,174.6,139.6Z" fill="#f4f2f2" fill-rule="evenodd"/>
      <path id="_Compound_Path_2" data-name="&lt;Compound Path&gt;" d="M382.4,5.2,484.7,273.7H427.9l-22.4-61.4h-109l-22.4,61.4H218.8L321.8,5.2Zm5.7,159.4L351,63.1,313.9,164.6Z" fill="#f4f2f2" fill-rule="evenodd"/>
      <path id="_Compound_Path_3" data-name="&lt;Compound Path&gt;" d="M644.8,163.9l57.6,109.8H644.1L591.4,170.3H564.2V273.7H511.5V5.2H616.4c52.3,0,85.6,36,85.6,82.6,0,37.5-22,65.8-57.2,76.1Zm3.8-75.8c0-22.7-15.5-37.5-42-37.5H564.2v74.7h42.4C633.1,125.3,648.6,110.1,648.6,88.1Z" fill="#f4f2f2" fill-rule="evenodd"/>
      <path id="_Compound_Path_4" data-name="&lt;Compound Path&gt;" d="M1000.6,139.3A139.75,139.75,0,1,1,860.8-.5,139.791,139.791,0,0,1,1000.6,139.3Zm-50.2.2A89.55,89.55,0,1,0,860.8,229,89.58,89.58,0,0,0,950.4,139.5Z" fill="#f4f2f2" fill-rule="evenodd"/>
      <path id="_Path_" data-name="&lt;Path&gt;" d="M1071.2,139.5a89.538,89.538,0,0,0,89.5,89.5v50a139.75,139.75,0,0,1,0-279.5V49.9A89.559,89.559,0,0,0,1071.2,139.5Z" fill="#f4f2f2"/>
    </g>
  </g>
</svg>
