<svg id="Calque_1" data-name="Calque 1" xmlns="http://www.w3.org/2000/svg" viewBox="0 0 315.07 304.07"><defs><style>.cls-1{fill:#5e5e5e;}</style></defs><title>el_logo_déf_envoi</title><path class="cls-1" d="M984.66,421.13l-10.53,10.56c-4.69,4.69-7,4.62-11.61-.12q-15.2-15.54-30.49-31c-3.75-3.8-4-5.91-.93-10.24q24.09-34.36,48.15-68.73a11.26,11.26,0,0,1,6.92-4.81c21.38-5.36,42.71-10.9,64.09-16.26a29.69,29.69,0,0,1,7.18-.49c2.61,0,4.13,1.69,5.45,3.79,5.25,8.35,12.9,13,22.7,13.36,10,0.36,18.05-3.93,23.89-12.11,3.67-5.15,6.07-6.27,12.47-4.74,9.39,2.23,18.71,4.7,28.06,7.08,12.33,3.14,24.65,6.35,37,9.39a10.94,10.94,0,0,1,6.75,4.65q24.16,34.62,48.43,69.15c2.71,3.87,2.54,6.05-.77,9.44q-15.91,16.25-31.85,32.46c-3.38,3.43-6.25,3.41-9.65,0-3.82-3.81-7.62-7.63-11.77-11.79-0.09,1.09-.19,1.7-0.19,2.32q0,65.86,0,131.72c0,13.91.06,27.83,0.07,41.74,0,5.24-2,7.24-7.26,7.25H992.56c-5.36,0-7.27-2-7.27-7.46q0-85.86,0-171.72v-3.22Zm246.49-26.72c-15.42-22-30.65-43.74-45.95-65.46a4.46,4.46,0,0,0-2.38-1.56q-30.93-8-61.89-15.83a3.74,3.74,0,0,0-4.48,1.46c-7.1,8.93-16.14,14.66-27.77,15.29-13.38.73-23.82-5.11-32-15.3a3.76,3.76,0,0,0-4.48-1.46q-30.46,7.8-60.94,15.52a6.6,6.6,0,0,0-4.11,2.86q-17.94,25.71-36,51.35c-3.09,4.4-6.15,8.82-9.59,13.75L969,421.16a19.21,19.21,0,0,1,1.47-1.81c5.4-5.44,10.85-10.84,16.25-16.28a5.65,5.65,0,0,1,9.79,4c0,0.75,0,1.5,0,2.25q0,89.87,0,179.75v3.2h180.25c0-1.2,0-2.19,0-3.19-0.05-14.33-.15-28.66-0.16-43q0-68.5,0-137c0-.92,0-1.84.06-2.75a5.22,5.22,0,0,1,3.15-4.46c2.72-1.32,4.8-.62,7.7,2.28,5.72,5.7,11.52,11.31,17.37,17Z" transform="translate(-929.01 -299.71)"/><path class="cls-1" d="M1154,384.61v8.25c0,6.63-6.85,16.58-13.12,18.92a10.26,10.26,0,0,1-10-1.38c-4.53-3.22-7.61-7.65-10-12.55a9.26,9.26,0,0,1-.6-3.9c-0.06-6.42,0-12.83,0-19.25,0-5.31,2-7.25,7.24-7.26q9.87,0,19.75,0c4.66,0,6.75,2.08,6.76,6.66Q1154,379.36,1154,384.61Zm-16.84,16.55c3-3.08,6-5.79,5.65-10.63-0.31-3.84-.06-7.72-0.06-11.6h-11.25c0,3.7.28,7.29-.07,10.81C1131,394.81,1133.86,397.9,1137.2,401.16Z" transform="translate(-929.01 -299.71)"/></svg>