<svg id="Calque_1" data-name="Calque 1" xmlns="http://www.w3.org/2000/svg" viewBox="0 0 431.88 57.29"><defs><style>.cls-1{fill:#1d1d1b;}</style></defs><title>logoeleven</title><path class="cls-1" d="M477.39,312.46q-7.67,0-12.27-4.44t-4.6-12.19a17.25,17.25,0,0,1,3.16-10.27,21.41,21.41,0,0,1,7.63-6.75q-4.88-6.63-4.88-11.67a11.24,11.24,0,0,1,3.56-8.55,12.37,12.37,0,0,1,8.83-3.36q5.83,0,9.15,3.24a10.68,10.68,0,0,1,3.32,8,13.75,13.75,0,0,1-2,6.79q-2.24,3.84-8.87,7.27l11.67,14.79a90.25,90.25,0,0,0,3.76-9.51l4.48,4.88a70.81,70.81,0,0,1-4.16,9.83l8.69,11H496.8l-4.46-5.58A19,19,0,0,1,477.39,312.46Zm0-6.23A13.64,13.64,0,0,0,488.5,301l-13.75-17.66q-7.67,4.32-7.67,12.63a9.63,9.63,0,0,0,3,7.51A10.49,10.49,0,0,0,477.39,306.23Zm-4.56-38.76q0,3.6,3.92,8.71a22.92,22.92,0,0,0,6.11-4.16,7.16,7.16,0,0,0,2.12-5.2,5.58,5.58,0,0,0-1.72-4.16,6.08,6.08,0,0,0-4.44-1.68,5.55,5.55,0,0,0-4.36,1.84A6.71,6.71,0,0,0,472.84,267.46Z" transform="translate(-216.06 -255.2)"/><path class="cls-1" d="M250.9,293.94H223a14.53,14.53,0,0,0,3.82,9.9,9.87,9.87,0,0,0,7.25,2.81c3.12,0,5.69-.86,7.33-2.57a8.35,8.35,0,0,0,2.34-4.29h6.47a14.52,14.52,0,0,1-6.08,9.74,18.17,18.17,0,0,1-10.06,3,16.81,16.81,0,0,1-13.1-5.92,22.34,22.34,0,0,1-4.91-14.65,24.08,24.08,0,0,1,3-12.63A16.89,16.89,0,0,1,234,271a15.88,15.88,0,0,1,12,5.07A20.33,20.33,0,0,1,251,290Zm-9.12-13.72a9.36,9.36,0,0,0-7.8-3.59c-7.17,0-10.68,5.85-10.84,11.61h21A13.78,13.78,0,0,0,241.78,280.22Z" transform="translate(-216.06 -255.2)"/><path class="cls-1" d="M311.67,293.94H283.76a14.53,14.53,0,0,0,3.82,9.9,9.87,9.87,0,0,0,7.25,2.81c3.12,0,5.69-.86,7.33-2.57a8.35,8.35,0,0,0,2.34-4.29H311a14.52,14.52,0,0,1-6.08,9.74,18.17,18.17,0,0,1-10.06,3,16.81,16.81,0,0,1-13.1-5.92,22.34,22.34,0,0,1-4.91-14.65,24.08,24.08,0,0,1,3-12.63A16.89,16.89,0,0,1,294.75,271a15.88,15.88,0,0,1,12,5.07,20.33,20.33,0,0,1,5,13.88Zm-9.12-13.72a9.36,9.36,0,0,0-7.8-3.59c-7.17,0-10.68,5.85-10.84,11.61h21A13.78,13.78,0,0,0,302.55,280.22Z" transform="translate(-216.06 -255.2)"/><path class="cls-1" d="M336.38,311.48h-7.17L314.63,272h6.94l11.38,31.65,11-31.65h6.7Z" transform="translate(-216.06 -255.2)"/><path class="cls-1" d="M388.6,293.94H360.7a14.53,14.53,0,0,0,3.82,9.9,9.87,9.87,0,0,0,7.25,2.81c3.12,0,5.69-.86,7.33-2.57a8.35,8.35,0,0,0,2.34-4.29h6.47a14.52,14.52,0,0,1-6.08,9.74,18.17,18.17,0,0,1-10.06,3,16.81,16.81,0,0,1-13.1-5.92,22.34,22.34,0,0,1-4.91-14.65,24.08,24.08,0,0,1,3-12.63A16.89,16.89,0,0,1,371.69,271a15.88,15.88,0,0,1,12,5.07,20.33,20.33,0,0,1,5,13.88Zm-9.12-13.72a9.36,9.36,0,0,0-7.8-3.59c-7.17,0-10.68,5.85-10.84,11.61h21A13.78,13.78,0,0,0,379.48,280.22Z" transform="translate(-216.06 -255.2)"/><path class="cls-1" d="M423.52,311.48v-25c0-5.92-2.42-9.43-8.65-9.43-3.82,0-6.86,2.49-8.57,6.08-1.33,2.88-1.4,7-1.4,10.06v18.32h-6.63V272H404l0.55,5.92c2-4.52,7.48-6.94,11.93-6.94,9,0,13.64,5.38,13.64,14.5v26h-6.63Z" transform="translate(-216.06 -255.2)"/><path class="cls-1" d="M585.42,312c-3.51,0-5.69-2.65-5.69-6h-0.16c-2.26,4-7.17,6.47-12.71,6.47-9,0-13.56-6.08-13.56-12.16,0-5.07,3.27-11.69,14-12.32l12-.7v-2.88c0-1.95-.23-4.37-2-6-1.33-1.25-3.27-2-6.47-2-3.59,0-5.85,1-7.17,2.34a6.46,6.46,0,0,0-1.95,4.76h-6.47a11.68,11.68,0,0,1,3.43-8.26c2.65-2.81,7.33-4.21,12.16-4.21,7.64,0,12,3.27,13.88,7.56a15.1,15.1,0,0,1,1.17,6.08v19.1c0,2.1.86,2.65,2.18,2.65a9.6,9.6,0,0,0,1.72-.23v4.91A9.17,9.17,0,0,1,585.42,312Zm-6.08-19.57-10.6.62c-4,.23-8.65,2.1-8.65,7.09,0,3.51,2.18,6.78,7.79,6.78a11.11,11.11,0,0,0,8.11-3.2,12.72,12.72,0,0,0,3.35-9v-2.34Z" transform="translate(-216.06 -255.2)"/><path class="cls-1" d="M637.72,311.48h-6.39L621,281.32l-10.52,30.17h-6.31L594.07,272h6.55l7.56,29.78,10.06-29.31h5.69l9.9,29.31L641.47,272h6.47Z" transform="translate(-216.06 -255.2)"/><rect class="cls-1" x="44.59" width="6.63" height="56.28"/><polygon class="cls-1" points="320.95 0 314.58 0 314.58 5.79 320.95 5.79 320.95 56.28 327.58 56.28 327.58 5.79 327.58 0 320.95 0"/><polygon class="cls-1" points="44.59 0 38.21 0 38.21 5.79 44.59 5.79 44.59 56.28 51.22 56.28 51.22 5.79 51.22 0 44.59 0"/></svg>