<svg id="Calque_1" data-name="Calque 1" xmlns="http://www.w3.org/2000/svg" viewBox="0 0 310.2 177.16"><title>terrain_footballrotate</title><path d="M587.85,185.79V362.95H277.66V185.79h310.2Zm-2.39,174.42V188.53H280V360.21H585.46Z" transform="translate(-277.66 -185.79)"/><path d="M335.8,225.8v97.13H277.66V225.8H335.8Zm-2.74,94.39v-92H280v92h53Z" transform="translate(-277.66 -185.79)"/><path d="M301.6,250.77V298H277.66v-47.2H301.6Zm-2.39,44.46V253.51H280v41.72H299.2Z" transform="translate(-277.66 -185.79)"/><rect x="150.82" y="0.68" width="2.74" height="174.42"/><path d="M346.06,274.37a17,17,0,0,1-11.29,16.07l-1.71.68V257.27l1.71,0.68A17.75,17.75,0,0,1,346.06,274.37Zm-10.26,13a14.67,14.67,0,0,0,0-26v26Z" transform="translate(-277.66 -185.79)"/><rect x="55.4" y="73.53" width="2.74" height="30.1"/><path d="M587.85,225.8v97.13H529.71V225.8h58.14Zm-2.39,94.39v-92h-53v92h53Z" transform="translate(-277.66 -185.79)"/><path d="M587.85,250.77V298H563.91v-47.2h23.94Zm-2.39,44.46V253.51H566.65v41.72h18.81Z" transform="translate(-277.66 -185.79)"/><path d="M532.45,257.61v33.86l-1.71-.68a17.3,17.3,0,0,1-11.29-16.07,17,17,0,0,1,11.29-16.07Zm-2.74,29.75v-26a14.59,14.59,0,0,0-7.87,13A15,15,0,0,0,529.71,287.36Z" transform="translate(-277.66 -185.79)"/><rect x="252.06" y="73.53" width="2.74" height="30.1"/><path d="M464.73,273.68a34.88,34.88,0,1,1-34.88-34.88A35,35,0,0,1,464.73,273.68Zm-67.37,0a32.49,32.49,0,1,0,32.49-32.49A32.48,32.48,0,0,0,397.36,273.68Z" transform="translate(-277.66 -185.79)"/></svg>